<svg width="20" height="20" viewBox="0 0 20 20" fill="none" xmlns="http://www.w3.org/2000/svg">
<g clip-path="url(#clip0_41_21)">
<path d="M10 0.0532227C4.50723 0.0532227 0.0534668 4.50698 0.0534668 9.9998C0.0534668 15.4926 4.50723 19.9464 10 19.9464C15.4929 19.9464 19.9466 15.4926 19.9466 9.9998C19.9466 4.50698 15.4929 0.0532227 10 0.0532227ZM14.7802 7.5509C14.7868 7.65525 14.7868 7.76404 14.7868 7.87061C14.7868 11.1299 12.3046 14.8843 7.76873 14.8843C6.36999 14.8843 5.07338 14.478 3.98103 13.7786C4.18085 13.8008 4.37179 13.8097 4.57605 13.8097C5.73057 13.8097 6.79183 13.4189 7.63773 12.7573C6.55427 12.7351 5.64398 12.0246 5.33315 11.0477C5.7128 11.1033 6.05472 11.1033 6.44548 11.0033C5.88759 10.89 5.38616 10.587 5.02635 10.1459C4.66654 9.7047 4.47056 9.15258 4.4717 8.5833V8.55222C4.79807 8.7365 5.18217 8.84973 5.58403 8.86527C5.24621 8.64013 4.96916 8.33511 4.77745 7.97725C4.58574 7.61939 4.4853 7.21976 4.48502 6.81379C4.48502 6.3542 4.60492 5.93458 4.82028 5.57047C5.4395 6.33275 6.2122 6.9562 7.08815 7.40029C7.9641 7.84439 8.9237 8.09919 9.90458 8.14814C9.556 6.47188 10.8082 5.11532 12.3135 5.11532C13.024 5.11532 13.6634 5.41283 14.1141 5.8924C14.6714 5.78805 15.2042 5.57935 15.6794 5.2996C15.4951 5.8702 15.1088 6.35198 14.5959 6.65615C15.0932 6.60287 15.5728 6.46521 16.0168 6.27206C15.6816 6.76494 15.262 7.20233 14.7802 7.5509Z" fill="#00A24C"/>
</g>
<defs>
<clipPath id="clip0_41_21">
<rect width="20" height="20" fill="white"/>
</clipPath>
</defs>
</svg>
