<svg width="200" height="28" viewBox="0 0 200 28" fill="none" xmlns="http://www.w3.org/2000/svg">
<g clip-path="url(#clip0_618_121)">
<path d="M10.8839 20.1445L6.09814 15.3222L8.7998 12.6778L10.8839 14.7778L19.6836 5.91112L22.3853 8.55556L10.8839 20.1445Z" fill="#00A24C"/>
<path d="M11.5015 25.5889V21.8556C15.7469 21.8556 19.2205 18.3556 19.2205 14.0778H23.0028C23.0028 20.4556 17.8311 25.5889 11.5015 25.5889Z" fill="#7BC193"/>
<path d="M11.5014 25.5889C5.17175 25.5889 0 20.3778 0 14H3.78232C3.78232 18.2778 7.25589 21.7778 11.5014 21.7778V25.5889Z" fill="#4EB270"/>
<path d="M3.78232 14H0C0 7.62223 5.17175 2.41112 11.5014 2.41112C13.2767 2.41112 15.0521 2.80001 16.6731 3.65556L14.9749 7.07778C13.8943 6.53334 12.7364 6.22223 11.5014 6.22223C7.25589 6.22223 3.78232 9.72223 3.78232 14Z" fill="#00A24C"/>
<path d="M57.4296 6.22222V9.72222H50.328V12.1333H56.7348V15.6333H50.328V18.2H57.5067V21.7778H46.3142V6.22222H57.4296ZM82.0533 6.22222L77.3446 21.7778H72.9448L70.3203 12.1333L67.6959 21.7778H63.296L58.5874 6.22222H62.9873L65.6117 17.1111L68.545 6.22222H72.0957L75.0289 17.1111L77.6534 6.22222H82.0533ZM83.5971 21.7778V6.22222H87.4566L93.4774 15.1667C93.4002 14.5444 93.4002 13.6889 93.4002 12.6V6.22222H97.4913V21.7778H93.6318L87.611 12.9111C87.6881 13.5333 87.6881 14.3889 87.6881 15.4778V21.8556L83.5971 21.7778ZM100.425 6.22222H104.516V21.7778H100.425V6.22222ZM105.982 21.7778L112.003 6.22222H116.403L122.424 21.7778H118.255L117.406 19.3667H111L110.151 21.7778H105.982ZM112.235 15.9444H116.171L114.55 11.4333C114.396 10.9667 114.242 10.4222 114.164 9.87777C114.087 10.4222 113.933 10.9667 113.778 11.4333L112.235 15.9444ZM123.196 10.4222C123.659 9.33333 124.276 8.47777 125.125 7.77777C125.897 7.15555 126.824 6.61111 127.827 6.3C128.831 5.98888 129.834 5.83333 130.915 5.83333C132.536 5.83333 134.002 6.14444 135.392 6.84444V10.7333C134.388 9.87777 133.153 9.48888 131.609 9.48888C130.22 9.48888 129.139 9.87777 128.136 10.6556C127.21 11.4333 126.746 12.6 126.746 14.2333C126.746 15.6333 127.21 16.7222 128.136 17.4222C129.062 18.1222 130.22 18.5111 131.532 18.5111C133.23 18.5111 134.543 18.0444 135.469 17.1889V21.1556C134.08 21.7778 132.613 22.1667 130.992 22.1667C129.911 22.1667 128.831 22.0111 127.904 21.7C126.901 21.3889 126.052 20.9222 125.203 20.3C124.431 19.6778 123.736 18.9 123.273 17.8111C122.81 16.8 122.578 15.5556 122.578 14.2333C122.501 12.7556 122.733 11.5111 123.196 10.4222ZM136.858 21.7778V18.9778L143.574 9.87777H137.244V6.22222H149.054V9.02222L142.339 18.0444H149.286V21.7778H136.858ZM151.447 21.7778V6.22222H155.538V12.0556H157.468L160.942 6.22222H165.496L160.633 13.7667L165.728 21.7778H161.173L157.468 15.7889H155.538V21.7778H151.447ZM167.04 6.22222H171.131V21.7778H167.04V6.22222ZM37.6688 6.22222H31.5708V13.3778H28.406V16.8H31.5708V21.7H35.6619V16.8H37.6688C42.1459 16.8 44.3844 15.0111 44.3844 11.5111C44.3844 8.01111 42.1459 6.22222 37.6688 6.22222ZM37.9004 13.3H35.6619V9.72222H37.9004C39.4442 9.72222 40.2161 10.3444 40.2161 11.5111C40.2161 12.6778 39.4442 13.3 37.9004 13.3Z" fill="#111111"/>
<path d="M200 19.2889C200 20.8444 198.765 22.0889 197.221 22.0889H179.313C177.769 22.0889 176.534 20.8444 176.534 19.2889V8.7111C176.534 7.15555 177.769 5.9111 179.313 5.9111H197.221C198.765 5.9111 200 7.15555 200 8.7111V19.2889Z" fill="#00A24C"/>
<path d="M184.871 9.56667C187.65 9.56667 189.116 10.7333 189.116 13.1444C189.116 15.5556 187.727 16.7222 184.871 16.7222H184.022V18.7444H180.548V9.56667H184.871ZM184.716 12.3667H184.022V13.9222H184.716C185.334 13.9222 185.643 13.6889 185.643 13.1444C185.643 12.6 185.334 12.3667 184.716 12.3667Z" fill="white"/>
<path d="M193.285 9.56667V15.7889H196.99V18.8222H189.811V9.56667H193.285Z" fill="white"/>
</g>
<defs>
<clipPath id="clip0_618_121">
<rect width="200" height="28" fill="white"/>
</clipPath>
</defs>
</svg>
